# AST/ASF file generated using VICON BodyLanguage
# -----------------------------------------------
:version 1.10
:name VICON
:units
  mass 1.0
  length 0.45
  angle deg
:documentation
   .ast/.asf automatically generated from VICON data using
   VICON BodyBuilder and BodyLanguage model FoxedUp or BRILLIANT.MOD
:root
   order TX TY TZ RX RY RZ
   axis XYZ
   position 0 0 0  
   orientation 0 0 0 
:bonedata
  begin
     id 1 
     name lhipjoint
     direction 0.573633 -0.743009 0.344793 
     length 2.46257 
     axis 0 0 0  XYZ
  end
  begin
     id 2 
     name lfemur
     direction 0.34202 -0.939693 0  
     length 7.3842  
     axis 0 0 20  XYZ
    dof rx ry rz
    limits (-160.0 20.0)
           (-70.0 70.0)
           (-60.0 70.0)
  end
  begin
     id 3 
     name ltibia
     direction 0.34202 -0.939693 0   
     length 7.50407   
     axis 0 0 20   XYZ
    dof rx
    limits (-10.0 170.0)
  end
  begin
     id 4 
     name lfoot
     direction 0.110749 -0.304281 0.946123   
     length 1.95925   
     axis -90 7.62852e-016 20   XYZ
    dof rx rz
    limits (-45.0 90.0)
           (-70.0 20.0)
  end
  begin
     id 5 
     name ltoes
     direction 1.53554e-011 -4.21843e-011 1   
     length 0.978318   
     axis -90 7.62852e-016 20   XYZ
    dof rx
    limits (-90.0 20.0)
  end
  begin
     id 6 
     name rhipjoint
     direction -0.488109 -0.791693 0.367385   
     length 2.31113  
     axis 0 0 0  XYZ 
  end
  begin
     id 7 
     name rfemur
     direction -0.34202 -0.939693 0   
     length 7.40965   
     axis 0 0 -20   XYZ
    dof rx ry rz
    limits (-160.0 20.0)
           (-70.0 70.0)
           (-70.0 60.0)
  end
  begin
     id 8 
     name rtibia
     direction -0.34202 -0.939693 0   
     length 7.55548   
     axis 0 0 -20   XYZ
    dof rx
    limits (-10.0 170.0)
 end
 begin
     id 9 
     name rfoot
     direction -0.127594 -0.350561 0.927808   
     length 2.07199  
     axis -90 -7.62852e-016 -20   XYZ
    dof rx rz
    limits (-45.0 90.0)
           (-20.0 70.0)
  end
  begin
     id 10 
     name rtoes
     direction -1.53542e-011 -4.21909e-011 1   
     length 1.02667   
     axis -90 -7.62852e-016 -20   XYZ
    dof rx
    limits (-90.0 20.0)
  end
  begin
     id 11 
     name lowerback
     direction -0.0103342 0.997298 -0.0727278   
     length 2.02836   
     axis 0 0 0   XYZ
    dof rx ry rz
    limits (-20.0 45.0)
           (-30.0 30.0)
           (-30.0 30.0)
  end
  begin
     id 12 
     name upperback
     direction 0.0171146 0.999786 -0.011606   
     length 2.03179   
     axis 0 0 0   XYZ
    dof rx ry rz
    limits (-20.0 45.0)
           (-30.0 30.0)
           (-30.0 30.0)
  end
  begin
     id 13 
     name thorax
     direction 0.0216927 0.999513 0.0224343   
     length 2.03882   
     axis 0 0 0   XYZ
    dof rx ry rz
    limits (-20.0 45.0)
           (-30.0 30.0)
           (-30.0 30.0)
  end
  begin
     id 14 
     name lowerneck
     direction 0.000989287 0.993907 0.110221   
     length 1.75428   
     axis 0 0 0   XYZ
    dof rx ry rz
    limits (-20.0 45.0)
           (-30.0 30.0)
           (-30.0 30.0)
  end
  begin
     id 15 
     name upperneck
     direction -0.0172474 0.994813 -0.100253   
     length 1.77058   
     axis 0 0 0   XYZ
    dof rx ry rz
    limits (-20.0 45.0)
           (-30.0 30.0)
           (-30.0 30.0)
  end
  begin
     id 16
     name head
     direction -0.00486455 0.99894 -0.0457663  
     length 1.77427  
     axis 0 0 0   XYZ
    dof rx ry rz
    limits (-20.0 45.0)
           (-30.0 30.0)
           (-30.0 30.0)
  end
  begin
     id 17 
     name lclavicle
     direction 0.927314 0.333734 -0.169441  
     length 3.97584  
     axis 0 0 0   XYZ
    dof ry rz
    limits (-20.0 10.0)
           (0.0 20.0)
  end
  begin
     id 18 
     name lhumerus
     direction 1 -4.48965e-011 -3.25313e-028   
     length 4.76468   
     axis 180 -30 -90   XYZ
    dof rx ry rz
    limits (-60.0 90.0)
           (-90.0 90.0)
           (-90.0 90.0)
  end
  begin
     id 19
     name lradius
     direction 1 -4.48969e-011 -2.8465e-028   
     length 3.52712   
     axis -180 -30 -90   XYZ
    dof rx
    limits (-10.0 170.0)
  end
  begin
     id 20
     name lwrist
     direction 1 -4.4896e-011 -7.78665e-028   
     length 1.76356   
     axis 1.91374e-015 90 90   XYZ
    dof ry
    limits (-180.0 0.0)
 end
  begin
     id 21 
     name lhand
     direction 1 -4.48959e-011 -1.55733e-027   
     length 0.859564   
     axis 9.9371e-016 90 90   XYZ
    dof rx rz
    limits (-90.0 90.0)
           (-45.0 45.0)
  end
  begin
     id 22 
     name lfingers
     direction 1 -4.48965e-011 -3.11466e-027   
     length 0.693002   
     axis 1.98742e-015 90 90   XYZ
    dof rx
    limits (0.0 90.0)
  end
  begin
     id 23
     name lthumb
     direction 0.707107 -6.34948e-011 0.707107   
     length 0.995017   
     axis -90 45 2.85299e-015   XYZ
    dof rx rz
    limits (-45.0 45.0)
           (-45.0 45.0)
  end
  begin
     id 24 
     name rclavicle
     direction -0.899388 0.348209 -0.264294   
     length 3.68366  
     axis 0 0 0   XYZ 
    dof ry rz
    limits (-10.0 20.0)
           (-20.0 0.0)
  end
  begin
     id 25 
     name rhumerus
     direction -1 -4.48965e-011 -3.01536e-027  
     length 4.90577   
     axis 180 30 90   XYZ
    dof rx ry rz
    limits (-90.0 60.0)
           (-90.0 90.0)
           (-90.0 90.0)
  end
  begin
     id 26 
     name rradius
     direction -1 -4.48966e-011 3.93291e-027   
     length 3.42692   
     axis -180 30 90   XYZ
    dof rx
    limits (-10.0 170.0)
  end
  begin
     id 27 
     name rwrist
     direction -1 -4.48969e-011 -7.78665e-028   
     length 1.71346   
     axis 1.91374e-015 -90 -90   XYZ
    dof ry
    limits (-180.0 0.0)
  end
  begin
     id 28
     name rhand
     direction -1 -4.48967e-011 -1.55733e-027   
     length 0.740957   
     axis 9.9371e-016 -90 -90   XYZ
    dof rx rz
    limits (-90.0 90.0)
           (-45.0 45.0)
  end
  begin
     id 29
     name rfingers
     direction -1 -4.48949e-011 -3.11466e-027   
     length 0.597378   
     axis 1.98742e-015 -90 -90   XYZ
    dof rx
    limits (0.0 90.0)
  end
  begin
     id 30
     name rthumb
     direction -0.707107 -6.34931e-011 0.707107   
     length 0.857719   
     axis -90 -45 -2.85299e-015   XYZ
    dof rx rz
    limits (-45.0 45.0)
           (-45.0 45.0)
  end
:hierarchy
  begin
    root lhipjoint rhipjoint lowerback
    lhipjoint lfemur
    lfemur ltibia
    ltibia lfoot
    lfoot ltoes
    rhipjoint rfemur
    rfemur rtibia
    rtibia rfoot
    rfoot rtoes
    lowerback upperback
    upperback thorax
    thorax lowerneck lclavicle rclavicle
    lowerneck upperneck
    upperneck head
    lclavicle lhumerus
    lhumerus lradius
    lradius lwrist
    lwrist lhand lthumb
    lhand lfingers
    rclavicle rhumerus
    rhumerus rradius
    rradius rwrist
    rwrist rhand rthumb
    rhand rfingers
  end

#!OML:ASF I:\AllaLogoMonkeySwing\Project 1\Capture day 1\Session 1\Subject1.ASF
:FULLY-SPECIFIED
:DEGREES
203
root -0.592213 16.5248 15.8936 -7.14848 20.1384 -2.42256
lowerback 12.4035 -0.432899 -2.97997
upperback 1.91266 -0.858756 1.76575
thorax -4.87278 -0.353894 3.67976
lowerneck -13.1026 -1.05946 -2.53779
upperneck 24.1103 -1.18599 1.4545
head 9.82685 -0.587964 0.797142
rclavicle 3.80587e-014 -5.46658e-016
rhumerus -38.2935 -3.29183 -84.9257
rradius 47.9212
rwrist -12.6093
rhand -13.45 -36.0735
rfingers 7.12502
rthumb 12.6594 -65.6698
lclavicle 3.80587e-014 -5.46658e-016
lhumerus -48.5508 17.0146 84.4426
lradius 47.7126
lwrist 5.03792
lhand -13.2794 -19.8811
lfingers 7.12502
lthumb 12.8238 9.70496
rfemur -16.9855 -0.257916 20.588
rtibia 50.2283
rfoot -24.7137 -3.57951
rtoes 11.5431
lfemur -16.1549 4.27877 -19.5229
ltibia 49.4328
lfoot -26.8121 -3.86255
ltoes -16.3316
204
root -0.574564 16.6489 16.0244 -6.50649 20.6601 -2.21746
lowerback 11.7424 -0.40576 -2.97837
upperback 1.76239 -0.813065 1.67966
thorax -4.6701 -0.334776 3.56905
lowerneck -13.1351 -1.14915 -2.61477
upperneck 24.0622 -1.32139 1.57388
head 9.82041 -0.643101 0.835097
rclavicle 1.75831e-014 -6.99474e-015
rhumerus -38.5571 -2.2153 -85.6469
rradius 48.2356
rwrist -12.2585
rhand -12.8809 -36.3285
rfingers 7.12502
rthumb 13.208 -65.8901
lclavicle 1.75831e-014 -6.99474e-015
lhumerus -48.9713 16.9698 84.8394
lradius 48.1626
lwrist 2.37553
lhand -12.4912 -20.3519
lfingers 7.12502
lthumb 13.5836 9.18497
rfemur -15.9531 -0.182404 20.4397
rtibia 48.2183
rfoot -24.4869 -3.81407
rtoes 10.9384
lfemur -15.2126 3.74584 -19.6796
ltibia 47.3516
lfoot -26.469 -3.59799
ltoes -17.6917
205
root -0.564663 16.7616 16.1407 -5.76722 21.273 -1.96785
lowerback 11.3447 -0.369973 -3.05116
upperback 1.48915 -0.771067 1.61167
thorax -4.73996 -0.308486 3.52836
lowerneck -13.2457 -1.23149 -2.77981
upperneck 24.1009 -1.41667 1.66842
head 9.85988 -0.690051 0.884314
rclavicle 7.39852e-015 -7.45443e-016
rhumerus -38.9885 -1.07744 -86.3227
rradius 48.679
rwrist -11.5883
rhand -12.8117 -36.7254
rfingers 7.12502
rthumb 13.2747 -66.2827
lclavicle 7.39852e-015 -7.45443e-016
lhumerus -49.5209 17.049 85.1227
lradius 48.6546
lwrist 0.290094
lhand -11.7311 -20.7844
lfingers 7.12502
lthumb 14.3161 8.70205
rfemur -15.1437 -0.243496 20.2324
rtibia 46.334
rfoot -24.1969 -3.89687
rtoes 10.7755
lfemur -14.5086 2.98447 -19.9205
ltibia 45.4101
lfoot -26.0656 -3.20948
ltoes -19.0278
206
root -0.554091 16.8568 16.241 -5.08253 21.8605 -1.99492
lowerback 11.0384 -0.328902 -2.77212
upperback 1.2621 -0.67617 1.627
thorax -4.81905 -0.262211 3.36932
lowerneck -13.4226 -1.3152 -2.96694
upperneck 24.0161 -1.47334 1.63644
head 9.86675 -0.735275 0.896886
rclavicle 3.24112e-014 4.67144e-015
rhumerus -39.2337 0.0480871 -86.8867
rradius 49.0879
rwrist -10.8599
rhand -12.9153 -36.9994
rfingers 7.12502
rthumb 13.1748 -66.5632
lclavicle 3.24112e-014 4.67144e-015
lhumerus -49.8916 16.8385 85.6075
lradius 49.1898
lwrist -0.564172
lhand -11.1546 -20.6902
lfingers 7.12502
lthumb 14.8716 8.75608
rfemur -14.5544 -0.552827 20.2724
rtibia 44.6426
rfoot -23.9088 -3.87153
rtoes 10.6935
lfemur -14.045 2.04676 -19.9271
ltibia 43.7242
lfoot -25.5997 -2.81375
ltoes -19.6546
207
root -0.539482 16.9329 16.3318 -4.45679 22.3143 -2.15751
lowerback 10.7239 -0.280964 -2.33423
upperback 1.15299 -0.551503 1.68235
thorax -4.77174 -0.208159 3.15686
lowerneck -13.6084 -1.37231 -3.04194
upperneck 23.6786 -1.47701 1.43797
head 9.78179 -0.764796 0.8377
rclavicle -5.17772e-015 3.32964e-015
rhumerus -39.1593 1.34964 -87.4258
rradius 49.3065
rwrist -10.2363
rhand -12.6605 -37.1392
rfingers 7.12502
rthumb 13.4204 -66.6869
lclavicle -5.17772e-015 3.32964e-015
lhumerus -50.1016 16.332 86.2708
lradius 49.8854
lwrist -0.285083
lhand -10.8534 -20.0088
lfingers 7.12502
lthumb 15.1618 9.4158
rfemur -14.1676 -1.08315 20.4256
rtibia 43.2215
rfoot -23.6705 -3.66721
rtoes 11.1319
lfemur -13.7657 1.01734 -19.8426
ltibia 42.3821
lfoot -25.193 -2.25694
ltoes -19.8224
208
root -0.523925 16.988 16.4143 -3.83169 22.6023 -2.19742
lowerback 10.5505 -0.148738 -2.01164
upperback 1.07164 -0.333381 1.72041
thorax -4.77753 -0.105326 2.98083
lowerneck -13.782 -1.4147 -3.09181
upperneck 23.2615 -1.46686 1.23703
head 9.66607 -0.78553 0.775315
rclavicle 4.38196e-014 -1.25234e-014
rhumerus -39.056 2.70067 -87.9337
rradius 49.538
rwrist -9.80632
rhand -12.252 -37.2267
rfingers 7.12502
rthumb 13.8141 -66.748
lclavicle 4.38196e-014 -1.25234e-014
lhumerus -50.3419 15.7973 86.9602
lradius 50.7051
lwrist 0.447731
lhand -10.8411 -19.1011
lfingers 7.12502
lthumb 15.1736 10.3225
rfemur -13.9747 -1.68974 20.4444
rtibia 42.1419
rfoot -23.5289 -3.34578
rtoes 11.607
lfemur -13.6525 0.0429065 -19.9025
ltibia 41.4277
lfoot -24.9217 -1.4469
ltoes -20.1513
209
root -0.513896 17.021 16.4816 -3.26968 22.8262 -2.18791
lowerback 10.6411 0.0511313 -1.76725
upperback 1.01868 -0.0370651 1.77147
thorax -4.90342 0.0391652 2.8543
lowerneck -13.98 -1.43983 -3.08124
upperneck 22.8602 -1.4265 0.951612
head 9.55934 -0.795939 0.677633
rclavicle 5.48894e-014 9.14409e-015
rhumerus -38.9797 3.94456 -88.3758
rradius 49.8792
rwrist -9.62567
rhand -12.1293 -37.267
rfingers 7.12502
rthumb 13.9324 -66.7802
lclavicle 5.48894e-014 9.14409e-015
lhumerus -50.3995 14.1237 88.2389
lradius 51.5281
lwrist 2.43757
lhand -11.5228 -17.9349
lfingers 7.12502
lthumb 14.5168 11.5372
rfemur -13.9628 -2.40221 20.4138
rtibia 41.4487
rfoot -23.5177 -3.0116
rtoes 11.5666
lfemur -13.6879 -0.86522 -19.9851
ltibia 40.8713
lfoot -24.6843 -0.743705
ltoes -20.0049
210
root -0.509513 17.0353 16.5353 -2.7907 23.0432 -2.2041
lowerback 10.9746 0.257859 -1.54245
upperback 0.995716 0.265926 1.83608
thorax -5.13196 0.188103 2.75183
lowerneck -14.1557 -1.41255 -2.87369
upperneck 22.3967 -1.314 0.460559
head 9.42272 -0.778434 0.485531
rclavicle -1.07219e-014 -2.38542e-015
rhumerus -38.8538 5.12149 -88.7985
rradius 50.1341
rwrist -9.63777
rhand -12.4613 -37.1363
rfingers 7.12502
rthumb 13.6124 -66.6713
lclavicle -1.07219e-014 -2.38542e-015
lhumerus -50.4931 12.9667 89.2494
lradius 52.3234
lwrist 3.89331
lhand -12.0286 -17.0551
lfingers 7.12502
lthumb 14.0295 12.4514
rfemur -14.1457 -3.27178 20.4184
rtibia 41.182
rfoot -23.6419 -2.70127
rtoes 11.3281
lfemur -13.8703 -1.7153 -20.0072
ltibia 40.7377
lfoot -24.5595 -0.283214
ltoes -18.5628
211
root -0.507815 17.0336 16.5808 -2.37937 23.2081 -2.33481
lowerback 11.447 0.483671 -1.19838
upperback 0.980601 0.610579 1.89436
thorax -5.42918 0.354616 2.56541
lowerneck -14.2791 -1.41545 -2.79501
upperneck 21.8883 -1.27908 0.223044
head 9.26579 -0.779371 0.394362
rclavicle -1.43622e-014 1.98785e-015
rhumerus -38.6947 6.17179 -89.2509
rradius 50.2999
rwrist -9.53635
rhand -13.1428 -37.0017
rfingers 7.12502
rthumb 12.9555 -66.5795
lclavicle -1.43622e-014 1.98785e-015
lhumerus -50.6179 11.8064 90.1845
lradius 53.1474
lwrist 5.05721
lhand -12.4454 -16.5021
lfingers 7.12502
lthumb 13.6278 13.0319
rfemur -14.5705 -4.22924 20.5502
rtibia 41.3736
rfoot -23.928 -2.32266
rtoes 11.1564
lfemur -14.3556 -2.40531 -19.8922
ltibia 41.0806
lfoot -24.6855 0.126511
ltoes -17.3625
212
root -0.513585 17.0133 16.6114 -1.94045 23.3288 -2.51074
lowerback 12.0486 0.707983 -0.888765
upperback 0.991412 0.954939 1.98894
thorax -5.76899 0.520993 2.43153
lowerneck -14.4875 -1.46255 -3.15762
upperneck 21.3962 -1.32804 0.540135
head 9.13988 -0.79477 0.55661
rclavicle 2.49723e-014 1.98785e-014
rhumerus -38.428 7.32075 -89.7341
rradius 50.4201
rwrist -9.24893
rhand -13.8969 -37.1506
rfingers 7.12502
rthumb 12.2285 -66.7731
lclavicle 2.49723e-014 1.98785e-014
lhumerus -50.7154 10.5165 91.1888
lradius 54.0072
lwrist 6.01365
lhand -12.8062 -16.3741
lfingers 7.12502
lthumb 13.28 13.1828
rfemur -15.3961 -5.23178 20.7642
rtibia 42.0781
rfoot -24.4057 -1.94647
rtoes 10.9731
lfemur -15.3029 -2.88078 -19.6892
ltibia 41.916
lfoot -24.9512 0.380035
ltoes -17.1547
